<svg width="35" height="24" viewBox="0 0 35 24" fill="none" xmlns="http://www.w3.org/2000/svg">
<rect x="0.5" y="0.5" width="34" height="23" rx="2" fill="white"/>
<rect x="0.5" y="0.5" width="34" height="23" rx="2" stroke="#D9D9D9"/>
<path d="M8.96875 5.90625C8.96875 5.58302 9.09715 5.27302 9.32571 5.04446C9.55427 4.8159 9.86427 4.6875 10.1875 4.6875H24.8125C25.1357 4.6875 25.4457 4.8159 25.6743 5.04446C25.9028 5.27302 26.0312 5.58302 26.0312 5.90625H8.96875ZM17.5 15.6562C18.1465 15.6562 18.7665 15.3994 19.2236 14.9423C19.6807 14.4852 19.9375 13.8652 19.9375 13.2188C19.9375 12.5723 19.6807 11.9523 19.2236 11.4952C18.7665 11.0381 18.1465 10.7812 17.5 10.7812C16.8535 10.7812 16.2335 11.0381 15.7764 11.4952C15.3193 11.9523 15.0625 12.5723 15.0625 13.2188C15.0625 13.8652 15.3193 14.4852 15.7764 14.9423C16.2335 15.3994 16.8535 15.6562 17.5 15.6562Z" fill="#4CA30D"/>
<path d="M7.75 8.34375C7.75 8.02052 7.8784 7.71052 8.10696 7.48196C8.33552 7.2534 8.64552 7.125 8.96875 7.125H26.0312C26.3545 7.125 26.6645 7.2534 26.893 7.48196C27.1216 7.71052 27.25 8.02052 27.25 8.34375V18.0938C27.25 18.417 27.1216 18.727 26.893 18.9555C26.6645 19.1841 26.3545 19.3125 26.0312 19.3125H8.96875C8.64552 19.3125 8.33552 19.1841 8.10696 18.9555C7.8784 18.727 7.75 18.417 7.75 18.0938V8.34375ZM11.4062 8.34375C11.4062 8.99022 11.1494 9.6102 10.6923 10.0673C10.2352 10.5244 9.61522 10.7812 8.96875 10.7812V15.6562C9.61522 15.6562 10.2352 15.9131 10.6923 16.3702C11.1494 16.8273 11.4062 17.4473 11.4062 18.0938H23.5938C23.5938 17.4473 23.8506 16.8273 24.3077 16.3702C24.7648 15.9131 25.3848 15.6562 26.0312 15.6562V10.7812C25.3848 10.7812 24.7648 10.5244 24.3077 10.0673C23.8506 9.6102 23.5938 8.99022 23.5938 8.34375H11.4062Z" fill="#4CA30D"/>
</svg>
