<svg width="21" height="20" viewBox="0 0 21 20" fill="none" xmlns="http://www.w3.org/2000/svg">
<path d="M8.00033 7.49996H8.00866M13.0003 12.5H13.0087M13.8337 6.66663L7.16699 13.3333M15.418 4.16538C15.5896 4.5804 15.919 4.91029 16.3337 5.08252L17.788 5.68494C18.2031 5.85686 18.5328 6.18662 18.7047 6.60168C18.8766 7.01673 18.8766 7.48308 18.7047 7.89813L18.1028 9.35146C17.9308 9.7667 17.9305 10.2335 18.1033 10.6486L18.7042 12.1015C18.7894 12.307 18.8333 12.5274 18.8334 12.7499C18.8334 12.9725 18.7896 13.1928 18.7044 13.3984C18.6193 13.604 18.4944 13.7908 18.3371 13.9482C18.1797 14.1055 17.9928 14.2303 17.7872 14.3154L16.334 14.9173C15.9189 15.089 15.5891 15.4183 15.4168 15.8331L14.8145 17.2875C14.6425 17.7025 14.3128 18.0323 13.8978 18.2042C13.4827 18.3761 13.0164 18.3761 12.6013 18.2042L11.1481 17.6022C10.733 17.4307 10.2668 17.4311 9.85206 17.6032L8.39774 18.2048C7.98293 18.3763 7.517 18.3761 7.1023 18.2044C6.6876 18.0326 6.35804 17.7032 6.186 17.2886L5.58343 15.8338C5.41183 15.4188 5.08245 15.0889 4.6677 14.9166L3.21338 14.3142C2.79852 14.1424 2.46887 13.8128 2.29689 13.398C2.12492 12.9832 2.12468 12.5171 2.29625 12.1021L2.89821 10.6488C3.0697 10.2337 3.06935 9.7675 2.89724 9.3527L2.29614 7.89728C2.21091 7.69171 2.16703 7.47136 2.16699 7.24882C2.16696 7.02628 2.21077 6.80592 2.29593 6.60032C2.38109 6.39472 2.50592 6.20792 2.6633 6.05059C2.82068 5.89325 3.00751 5.76847 3.21313 5.68338L4.66641 5.08139C5.08105 4.90994 5.41073 4.58096 5.58308 4.16667L6.18548 2.7123C6.35739 2.29725 6.68714 1.96749 7.10218 1.79557C7.51722 1.62365 7.98355 1.62365 8.39859 1.79557L9.85186 2.39756C10.2669 2.56905 10.7331 2.5687 11.1479 2.39658L12.6028 1.7965C13.0178 1.62468 13.484 1.62471 13.899 1.7966C14.3139 1.96849 14.6436 2.29815 14.8156 2.7131L15.4182 4.1679L15.418 4.16538ZM8.41699 7.49996C8.41699 7.73008 8.23044 7.91663 8.00033 7.91663C7.77021 7.91663 7.58366 7.73008 7.58366 7.49996C7.58366 7.26984 7.77021 7.08329 8.00033 7.08329C8.23044 7.08329 8.41699 7.26984 8.41699 7.49996ZM13.417 12.5C13.417 12.7301 13.2304 12.9166 13.0003 12.9166C12.7702 12.9166 12.5837 12.7301 12.5837 12.5C12.5837 12.2698 12.7702 12.0833 13.0003 12.0833C13.2304 12.0833 13.417 12.2698 13.417 12.5Z" stroke="#4CA30D" stroke-width="1.66667" stroke-linecap="round" stroke-linejoin="round"/>
</svg>
