<svg width="204" height="243" viewBox="0 0 204 243" fill="none" xmlns="http://www.w3.org/2000/svg">
<path d="M102 227.157C158.143 227.157 203.657 181.643 203.657 125.5C203.657 69.3566 158.143 23.8434 102 23.8434C45.8566 23.8434 0.343384 69.3566 0.343384 125.5C0.343384 181.643 45.8566 227.157 102 227.157Z" fill="#CEEAB0"/>
<g filter="url(#filter0_d_282_25735)">
<path d="M160.283 82.1266H43.7172C39.9743 82.1266 36.9401 85.1608 36.9401 88.9037V231.223C36.9401 234.966 39.9743 238 43.7172 238H160.283C164.026 238 167.061 234.966 167.061 231.223V88.9037C167.061 85.1608 164.026 82.1266 160.283 82.1266Z" fill="white"/>
</g>
<path d="M88.4458 102.458H53.2048C50.9591 102.458 49.1385 104.278 49.1385 106.524C49.1385 108.77 50.9591 110.59 53.2048 110.59H88.4458C90.6915 110.59 92.512 108.77 92.512 106.524C92.512 104.278 90.6915 102.458 88.4458 102.458Z" fill="#D0F8AB"/>
<path d="M112.843 120.078H53.2047C50.959 120.078 49.1384 121.899 49.1384 124.145C49.1384 126.39 50.959 128.211 53.2047 128.211H112.843C115.089 128.211 116.91 126.39 116.91 124.145C116.91 121.899 115.089 120.078 112.843 120.078Z" fill="#85E13A"/>
<path d="M88.4458 139.054H53.2048C50.9591 139.054 49.1385 140.875 49.1385 143.12C49.1385 145.366 50.9591 147.187 53.2048 147.187H88.4458C90.6915 147.187 92.512 145.366 92.512 143.12C92.512 140.875 90.6915 139.054 88.4458 139.054Z" fill="#D0F8AB"/>
<path d="M112.843 156.675H53.2047C50.959 156.675 49.1384 158.495 49.1384 160.741C49.1384 162.987 50.959 164.807 53.2047 164.807H112.843C115.089 164.807 116.91 162.987 116.91 160.741C116.91 158.495 115.089 156.675 112.843 156.675Z" fill="#85E13A"/>
<path d="M88.4458 175.651H53.2048C50.9591 175.651 49.1385 177.471 49.1385 179.717C49.1385 181.963 50.9591 183.783 53.2048 183.783H88.4458C90.6915 183.783 92.512 181.963 92.512 179.717C92.512 177.471 90.6915 175.651 88.4458 175.651Z" fill="#D0F8AB"/>
<path d="M112.843 193.271H53.2047C50.959 193.271 49.1384 195.092 49.1384 197.337C49.1384 199.583 50.959 201.404 53.2047 201.404H112.843C115.089 201.404 116.91 199.583 116.91 197.337C116.91 195.092 115.089 193.271 112.843 193.271Z" fill="#85E13A"/>
<g filter="url(#filter1_d_282_25735)">
<path d="M160.284 13H43.7178C39.9749 13 36.9407 16.0342 36.9407 19.7771V60.4398C36.9407 64.1827 39.9749 67.2169 43.7178 67.2169H160.284C164.027 67.2169 167.061 64.1827 167.061 60.4398V19.7771C167.061 16.0342 164.027 13 160.284 13Z" fill="#80B750"/>
</g>
<path d="M88.4464 27.9097H53.2055C50.9598 27.9097 49.1392 29.7302 49.1392 31.9759C49.1392 34.2217 50.9598 36.0422 53.2055 36.0422H88.4464C90.6922 36.0422 92.5127 34.2217 92.5127 31.9759C92.5127 29.7302 90.6922 27.9097 88.4464 27.9097Z" fill="white"/>
<path d="M112.844 45.5302H53.2054C50.9596 45.5302 49.1391 47.3507 49.1391 49.5964C49.1391 51.8422 50.9596 53.6627 53.2054 53.6627H112.844C115.09 53.6627 116.91 51.8422 116.91 49.5964C116.91 47.3507 115.09 45.5302 112.844 45.5302Z" fill="white"/>
<defs>
<filter id="filter0_d_282_25735" x="28.8075" y="69.9278" width="146.386" height="172.139" filterUnits="userSpaceOnUse" color-interpolation-filters="sRGB">
<feFlood flood-opacity="0" result="BackgroundImageFix"/>
<feColorMatrix in="SourceAlpha" type="matrix" values="0 0 0 0 0 0 0 0 0 0 0 0 0 0 0 0 0 0 127 0" result="hardAlpha"/>
<feOffset dy="-4.06627"/>
<feGaussianBlur stdDeviation="4.06627"/>
<feColorMatrix type="matrix" values="0 0 0 0 0.788235 0 0 0 0 0.803922 0 0 0 0 0.85098 0 0 0 0.349 0"/>
<feBlend mode="normal" in2="BackgroundImageFix" result="effect1_dropShadow_282_25735"/>
<feBlend mode="normal" in="SourceGraphic" in2="effect1_dropShadow_282_25735" result="shape"/>
</filter>
<filter id="filter1_d_282_25735" x="28.8082" y="0.801205" width="146.386" height="70.4819" filterUnits="userSpaceOnUse" color-interpolation-filters="sRGB">
<feFlood flood-opacity="0" result="BackgroundImageFix"/>
<feColorMatrix in="SourceAlpha" type="matrix" values="0 0 0 0 0 0 0 0 0 0 0 0 0 0 0 0 0 0 127 0" result="hardAlpha"/>
<feOffset dy="-4.06627"/>
<feGaussianBlur stdDeviation="4.06627"/>
<feColorMatrix type="matrix" values="0 0 0 0 0.788235 0 0 0 0 0.803922 0 0 0 0 0.85098 0 0 0 0.349 0"/>
<feBlend mode="normal" in2="BackgroundImageFix" result="effect1_dropShadow_282_25735"/>
<feBlend mode="normal" in="SourceGraphic" in2="effect1_dropShadow_282_25735" result="shape"/>
</filter>
</defs>
</svg>
