<svg width="203" height="203" viewBox="0 0 203 203" fill="none" xmlns="http://www.w3.org/2000/svg">
<rect width="203" height="203" rx="101.5" fill="white"/>
<g clip-path="url(#clip0_282_33363)">
<path d="M101.485 83.7396C100.787 83.7256 100.2 83.2157 100.081 82.5243C98.6143 72.55 91.888 62.4709 80.2233 62.4709C69.2921 62.4918 60.4284 71.3556 60.4075 82.2868C60.4773 83.0621 59.9046 83.7396 59.1292 83.8095C58.3539 83.8793 57.6764 83.3066 57.6066 82.5312C57.5996 82.4474 57.5996 82.3706 57.6066 82.2868C57.5856 69.784 67.7066 59.6351 80.2094 59.6211H80.2233C91.7483 59.6211 100.877 68.6664 102.903 82.1471C103.001 82.9084 102.484 83.6139 101.723 83.7466C101.646 83.7815 101.562 83.7815 101.485 83.7466V83.7396Z" fill="#75BF45"/>
<path d="M122.705 104.966C116.838 105.008 111.222 102.564 107.248 98.2471C103.266 93.8676 100.766 88.3566 100.081 82.4754C99.9905 81.6931 100.549 80.9947 101.332 80.9039C102.114 80.8131 102.812 81.3718 102.903 82.1541C104.209 92.1284 110.866 102.152 122.761 102.152C133.72 102.152 142.605 93.253 142.598 82.2938C142.528 81.5185 143.101 80.841 143.876 80.7711C144.651 80.7013 145.329 81.2741 145.399 82.0494C145.399 82.1332 145.399 82.21 145.399 82.2938C145.385 94.8176 135.229 104.966 122.705 104.966Z" fill="#75BF45"/>
<path d="M140.453 72.0822C140.013 72.0403 139.615 71.8028 139.378 71.4256C133.427 62.2686 121.175 59.6772 112.025 65.6283C109.713 67.137 107.737 69.1067 106.228 71.4256C105.76 72.0613 104.866 72.194 104.23 71.726C103.651 71.2999 103.483 70.5106 103.832 69.882C110.586 59.4327 124.535 56.4363 134.984 63.1976C137.66 64.9298 139.944 67.2068 141.669 69.882C142.088 70.5386 141.906 71.4187 141.25 71.8447C141.04 72.0403 140.74 72.1311 140.453 72.0822Z" fill="#42554A"/>
<path d="M143.974 83.7398H124.297C123.522 83.7398 122.893 83.1111 122.893 82.3358C122.893 81.5605 123.522 80.9319 124.297 80.9319H143.974C144.735 80.9179 145.357 81.5256 145.371 82.2799V82.3358C145.364 83.1111 144.742 83.7398 143.974 83.7398Z" fill="#75BF45"/>
<path d="M80.2645 104.967C72.1202 104.967 64.6045 100.58 60.6022 93.4907C60.4626 93.2532 60.3229 92.9738 60.1832 92.7363C58.5278 89.5233 57.6616 85.9541 57.6547 82.3429C57.6547 81.5676 58.2833 80.939 59.0586 80.939C59.8339 80.939 60.4626 81.5676 60.4626 82.3429C60.4416 85.514 61.175 88.6502 62.6069 91.486C62.7186 91.7095 62.8444 91.933 62.9841 92.1426C68.3414 101.691 80.4251 105.092 89.9733 99.742C92.0338 98.5896 93.8708 97.0739 95.3935 95.2788C96.2038 94.3149 96.9162 93.2811 97.5379 92.1915C97.929 91.5209 98.7881 91.2974 99.4587 91.6746C100.129 92.0448 100.367 92.89 99.9965 93.5535C99.9965 93.5675 99.9825 93.5815 99.9756 93.5884C99.2491 94.8597 98.411 96.0611 97.468 97.1856C93.1095 102.117 86.8511 104.953 80.2645 104.967Z" fill="#42554A"/>
<path d="M79.7832 104.967C67.2874 104.695 57.383 94.35 57.6554 81.8542C57.9208 69.7426 67.6716 59.9918 79.7832 59.7264C80.5446 59.7054 81.1732 60.3061 81.1872 61.0674V61.1303C81.2081 61.8917 80.6074 62.5203 79.8461 62.5343H79.7832C68.845 62.7857 60.1769 71.8659 60.4353 82.8041C60.6798 93.3861 69.2013 101.908 79.7832 102.152C80.5446 102.131 81.1732 102.732 81.1942 103.493V103.612C81.1592 104.366 80.5376 104.967 79.7832 104.967Z" fill="url(#paint0_linear_282_33363)"/>
<path d="M51.2853 130.017V141.666C50.2862 142.189 48.9817 142.613 47.372 142.935C45.7662 143.256 44.1367 143.418 42.4952 143.418C39.9934 143.418 37.8366 142.907 36.0286 141.88C34.2167 140.857 32.8329 139.378 31.8655 137.451C30.902 135.52 30.4183 133.213 30.4183 130.521C30.4183 127.829 30.8941 125.553 31.8457 123.626C32.7972 121.695 34.1691 120.22 35.9533 119.197C37.7374 118.174 39.8467 117.655 42.2772 117.655C44.0415 117.655 45.6592 117.924 47.1381 118.46C48.613 118.995 49.8778 119.788 50.9245 120.835L49.8183 123.087C48.6051 122.04 47.4077 121.287 46.2262 120.835C45.0486 120.383 43.7323 120.157 42.2772 120.157C39.4423 120.157 37.2617 121.049 35.7392 122.837C34.2167 124.625 33.4514 127.182 33.4514 130.517C33.4514 133.851 34.2246 136.512 35.7748 138.288C37.3211 140.064 39.585 140.948 42.5626 140.948C44.7314 140.948 46.7416 140.627 48.6011 139.985V132.305H42.3485V130.017H51.2853Z" fill="#42554A"/>
<path d="M57.2166 143.133V117.944H60.1466V143.133H57.2166Z" fill="#42554A"/>
<path d="M83.797 117.94H86.5486V143.129H84.2966L69.1112 122.873V143.129H66.3596V117.94H68.6117L83.797 138.197V117.94Z" fill="#42554A"/>
<path d="M92.7655 143.133V117.944H108.7V120.375H95.6598V129.129H107.987V131.56H95.6598V140.707H108.7V143.137H92.7655V143.133Z" fill="#42554A"/>
<path d="M111.773 140.239L112.915 137.987C114.152 139.033 115.42 139.787 116.721 140.239C118.017 140.691 119.524 140.917 121.241 140.917C123.267 140.917 124.825 140.524 125.919 139.739C127.014 138.954 127.565 137.844 127.565 136.416C127.565 135.584 127.303 134.902 126.78 134.378C126.256 133.855 125.567 133.439 124.706 133.13C123.85 132.82 122.692 132.499 121.241 132.166C119.286 131.714 117.684 131.238 116.435 130.739C115.187 130.239 114.172 129.526 113.398 128.594C112.625 127.666 112.237 126.449 112.237 124.95C112.237 123.451 112.613 122.254 113.363 121.144C114.112 120.038 115.187 119.177 116.578 118.571C117.97 117.964 119.584 117.655 121.419 117.655C123.156 117.655 124.781 117.928 126.296 118.476C127.807 119.023 129.087 119.808 130.138 120.835L129.032 123.087C127.842 122.064 126.633 121.318 125.404 120.854C124.175 120.391 122.851 120.157 121.419 120.157C119.465 120.157 117.934 120.569 116.828 121.39C115.722 122.21 115.167 123.36 115.167 124.839C115.167 126.104 115.654 127.055 116.63 127.698C117.605 128.34 119.084 128.887 121.058 129.343C123.227 129.867 124.928 130.35 126.169 130.79C127.406 131.23 128.437 131.893 129.262 132.773C130.082 133.653 130.495 134.834 130.495 136.309C130.495 137.784 130.118 138.99 129.369 140.06C128.619 141.131 127.541 141.959 126.133 142.542C124.726 143.125 123.085 143.418 121.201 143.418C117.276 143.418 114.132 142.352 111.773 140.235V140.239Z" fill="#42554A"/>
<path d="M153.645 117.94L143.749 131.231V143.129H140.819V131.195L130.923 117.94H134.317L142.318 128.804L150.319 117.94H153.645Z" fill="#42554A"/>
<path d="M153.86 140.239L155.001 137.987C156.239 139.033 157.507 139.787 158.808 140.239C160.104 140.691 161.611 140.917 163.328 140.917C165.354 140.917 166.912 140.524 168.01 139.739C169.104 138.954 169.656 137.844 169.656 136.416C169.656 135.584 169.394 134.902 168.871 134.378C168.347 133.855 167.657 133.439 166.797 133.13C165.941 132.82 164.783 132.499 163.332 132.166C161.377 131.714 159.775 131.238 158.526 130.739C157.277 130.239 156.262 129.526 155.489 128.594C154.716 127.666 154.327 126.449 154.327 124.95C154.327 123.451 154.704 122.254 155.453 121.144C156.203 120.038 157.277 119.177 158.669 118.571C160.061 117.964 161.674 117.655 163.51 117.655C165.251 117.655 166.876 117.928 168.387 118.476C169.897 119.023 171.178 119.808 172.229 120.835L171.123 123.087C169.929 122.064 168.724 121.318 167.495 120.854C166.266 120.391 164.937 120.157 163.51 120.157C161.555 120.157 160.025 120.569 158.919 121.39C157.813 122.21 157.257 123.36 157.257 124.839C157.257 126.104 157.745 127.055 158.721 127.698C159.696 128.34 161.175 128.887 163.149 129.343C165.318 129.867 167.023 130.35 168.26 130.79C169.497 131.23 170.528 131.893 171.349 132.773C172.169 133.653 172.582 134.834 172.582 136.309C172.582 137.784 172.205 138.99 171.456 140.06C170.706 141.131 169.628 141.959 168.224 142.542C166.817 143.125 165.175 143.418 163.292 143.418C159.363 143.418 156.219 142.352 153.86 140.235V140.239Z" fill="#42554A"/>
</g>
<defs>
<linearGradient id="paint0_linear_282_33363" x1="69.4178" y1="59.7194" x2="69.4178" y2="104.96" gradientUnits="userSpaceOnUse">
<stop stop-color="#75BF45"/>
<stop offset="0.21" stop-color="#74BC45"/>
<stop offset="0.4" stop-color="#6AB045"/>
<stop offset="0.58" stop-color="#639E44"/>
<stop offset="0.76" stop-color="#598446"/>
<stop offset="0.93" stop-color="#486449"/>
<stop offset="1" stop-color="#42554A"/>
</linearGradient>
<clipPath id="clip0_282_33363">
<rect width="196.656" height="83.8367" fill="white" transform="translate(3.17188 59.5818)"/>
</clipPath>
</defs>
</svg>
