<svg width="89" height="46" viewBox="0 0 89 46" fill="none" xmlns="http://www.w3.org/2000/svg">
<path d="M44.4851 24.1581C43.7866 24.1441 43.1999 23.6342 43.0811 22.9427C41.6143 12.9684 34.888 2.88935 23.2233 2.88935C12.2921 2.9103 3.42842 11.774 3.40746 22.7052C3.47731 23.4805 2.90456 24.1581 2.12924 24.2279C1.35393 24.2978 0.676405 23.725 0.606557 22.9497C0.599572 22.8659 0.599572 22.789 0.606557 22.7052C0.585603 10.2024 10.7066 0.0535204 23.2094 0.0395508H23.2233C34.7483 0.0395508 43.8774 9.08487 45.903 22.5655C46.0008 23.3269 45.4839 24.0323 44.7226 24.165C44.6457 24.2 44.5619 24.2 44.4851 24.165V24.1581Z" fill="#75BF45"/>
<path d="M65.7051 45.385C59.8379 45.4269 54.2221 42.9822 50.2477 38.6656C46.2664 34.2861 43.7658 28.7751 43.0813 22.8939C42.9905 22.1116 43.5493 21.4131 44.3316 21.3223C45.1139 21.2315 45.8124 21.7903 45.9032 22.5726C47.2093 32.5469 53.8659 42.5701 65.761 42.5701C76.7201 42.5701 85.6048 33.6714 85.5978 22.7123C85.528 21.937 86.1007 21.2595 86.876 21.1896C87.6513 21.1198 88.3289 21.6925 88.3987 22.4678C88.3987 22.5516 88.3987 22.6285 88.3987 22.7123C88.3847 35.236 78.2288 45.385 65.7051 45.385Z" fill="#75BF45"/>
<path d="M83.4534 12.5007C83.0134 12.4588 82.6152 12.2213 82.3778 11.8441C76.4267 2.68703 64.1754 0.0956712 55.0253 6.04672C52.7133 7.55544 50.7366 9.52515 49.2279 11.8441C48.7599 12.4797 47.8659 12.6124 47.2303 12.1445C46.6505 11.7184 46.4829 10.9291 46.8321 10.3005C53.5864 -0.148796 67.5351 -3.14528 77.9843 3.61601C80.6595 5.34824 82.9435 7.62529 84.6688 10.3005C85.0879 10.957 84.9063 11.8371 84.2497 12.2632C84.0401 12.4588 83.7398 12.5496 83.4534 12.5007Z" fill="#42554A"/>
<path d="M86.9734 24.1582H67.2973C66.5219 24.1582 65.8933 23.5296 65.8933 22.7543C65.8933 21.979 66.5219 21.3503 67.2973 21.3503H86.9734C87.7348 21.3364 88.3564 21.944 88.3704 22.6984V22.7543C88.3634 23.5296 87.7418 24.1582 86.9734 24.1582Z" fill="#75BF45"/>
<path d="M23.2645 45.3851C15.1202 45.3851 7.60454 40.9987 3.60225 33.9091C3.46255 33.6716 3.32286 33.3922 3.18316 33.1547C1.52776 29.9417 0.661648 26.3725 0.654663 22.7614C0.654663 21.9861 1.2833 21.3574 2.05861 21.3574C2.83392 21.3574 3.46255 21.9861 3.46255 22.7614C3.4416 25.9325 4.175 29.0686 5.60689 31.9045C5.71864 32.128 5.84437 32.3515 5.98407 32.561C11.3414 42.1093 23.4251 45.5109 32.9733 40.1605C35.0338 39.008 36.8708 37.4923 38.3935 35.6972C39.2038 34.7333 39.9162 33.6996 40.5379 32.6099C40.929 31.9394 41.7881 31.7159 42.4587 32.0931C43.1292 32.4633 43.3667 33.3084 42.9965 33.972C42.9965 33.9859 42.9825 33.9999 42.9756 34.0069C42.2491 35.2781 41.411 36.4795 40.468 37.6041C36.1095 42.5353 29.8511 45.3712 23.2645 45.3851Z" fill="#42554A"/>
<path d="M22.7832 45.3854C10.2874 45.113 0.382982 34.7685 0.655389 22.2727C0.920812 10.161 10.6716 0.410241 22.7832 0.144819C23.5446 0.123865 24.1732 0.724558 24.1872 1.4859V1.54876C24.2081 2.31011 23.6074 2.93874 22.8461 2.95271H22.7832C11.845 3.20416 3.1769 12.2844 3.43534 23.2226C3.67981 33.8046 12.2013 42.326 22.7832 42.5705C23.5446 42.5495 24.1732 43.1502 24.1942 43.9116V44.0303C24.1592 44.7847 23.5376 45.3854 22.7832 45.3854Z" fill="url(#paint0_linear_963_48125)"/>
<defs>
<linearGradient id="paint0_linear_963_48125" x1="12.4178" y1="0.137834" x2="12.4178" y2="45.3784" gradientUnits="userSpaceOnUse">
<stop stop-color="#75BF45"/>
<stop offset="0.21" stop-color="#74BC45"/>
<stop offset="0.4" stop-color="#6AB045"/>
<stop offset="0.58" stop-color="#639E44"/>
<stop offset="0.76" stop-color="#598446"/>
<stop offset="0.93" stop-color="#486449"/>
<stop offset="1" stop-color="#42554A"/>
</linearGradient>
</defs>
</svg>
