<svg width="128" height="128" viewBox="0 0 128 128" fill="none" xmlns="http://www.w3.org/2000/svg">
<rect width="128" height="128" fill="#F5FFEF"/>
<path d="M102.751 42.0898H45.4498L43.6668 33.2734C43.6043 32.9648 43.4094 32.707 43.141 32.5781L37.6373 29.875C37.4388 28.2383 36.5858 27.7578 36.1447 27.6172L25.4793 24.2266C25.0087 24.0781 24.5234 24 24.0344 24C21.8248 24 19.8432 25.5703 19.2109 27.8203C18.4167 30.6484 19.9351 33.6406 22.5969 34.4844L33.2661 37.8711C33.4389 37.9258 33.6154 37.9531 33.7918 37.9531C34.5786 37.9531 35.2661 37.4219 35.8397 36.6328L37.8103 37.6328L44.5272 70.8598L29.1672 80.7153C28.8841 80.895 28.7113 81.2231 28.7113 81.5708V92.5668C28.7113 93.1215 29.1341 93.5668 29.6525 93.5668H39.3955C38.1382 94.7582 37.3404 96.4887 37.3404 98.4145C37.3404 102 40.0831 104.915 43.458 104.915C46.833 104.915 49.5757 102 49.5757 98.4145C49.5757 96.4848 48.7779 94.7583 47.5205 93.5668H85.6711C84.4138 94.7582 83.616 96.4887 83.616 98.4145C83.616 102 86.3586 104.915 89.7336 104.915C93.1086 104.915 95.8513 102 95.8513 98.4145C95.8513 96.4848 95.0535 94.7583 93.7961 93.5668H99.3035C99.8219 93.5668 100.245 93.1215 100.245 92.5668V87.5668C100.245 87.0121 99.8219 86.5668 99.3035 86.5668H35.3035V84.9574L41.7704 80.809H92.6382C93.0793 80.809 93.458 80.4848 93.5573 80.0278L95.425 71.2466H95.4617V71.0747L99.9176 50.1217H102.756C103.274 50.1217 103.697 49.6764 103.697 49.1217V43.0905C103.693 42.5397 103.27 42.0898 102.751 42.0898ZM43.4574 102.914C41.1228 102.914 39.2221 100.894 39.2221 98.4138C39.2221 95.9333 41.1228 93.9138 43.4574 93.9138C45.7919 93.9138 47.6926 95.9333 47.6926 98.4138C47.6926 100.894 45.7919 102.914 43.4574 102.914ZM89.7294 102.914C87.3948 102.914 85.4941 100.894 85.4941 98.4138C85.4941 95.9333 87.3948 93.9138 89.7294 93.9138C92.0639 93.9138 93.9647 95.9333 93.9647 98.4138C93.9647 100.894 92.0676 102.914 89.7294 102.914ZM84.1448 69.2458H76.075L77.2992 60.0388H85.3691L84.1448 69.2458ZM87.2698 60.0388H95.8727L93.9132 69.2458H86.0455L87.2698 60.0388ZM49.0787 60.0388H53.053L54.2773 69.2458H50.939L49.0787 60.0388ZM54.9537 60.0388H64.5528V69.2458H56.1778L54.9537 60.0388ZM66.4351 60.0388H75.3983L74.1741 69.2458H66.435L66.4351 60.0388ZM64.5528 71.2458V78.8083H57.4462L56.4425 71.2458H64.5528ZM66.4351 71.2458H73.9057L72.9021 78.8083H66.4351V71.2458ZM75.8101 71.2458H83.8799L82.8763 78.8083H74.8064L75.8101 71.2458ZM77.5638 58.0388L78.6153 50.1208H86.6851L85.6336 58.0388H77.5638ZM75.6631 58.0388H66.4351V50.1208H76.7147L75.6631 58.0388ZM64.5525 58.0388H54.689L53.6375 50.1208H64.557L64.5525 58.0388ZM51.7365 50.1208L52.788 58.0388H48.674L47.0748 50.1208H51.7365ZM33.7958 35.9528L23.1304 32.57C21.4613 32.0387 20.5128 30.1677 21.0091 28.3942C21.4061 26.984 22.6488 25.9997 24.0311 25.9997C24.3362 25.9997 24.6414 26.0465 24.9392 26.1403L35.5971 29.5192C35.7882 29.6832 36.0088 30.9098 35.4316 32.9723C34.8581 35.0114 34.0458 35.9098 33.7958 35.9528ZM33.873 83.5348C33.5899 83.7145 33.4171 84.0426 33.4171 84.3902V87.5621C33.4171 88.1168 33.8399 88.5621 34.3583 88.5621H98.3583V91.5621H30.5936V82.1324L46.075 72.2027C46.4206 71.984 46.5934 71.5543 46.5088 71.1363L39.5566 36.7303C39.4941 36.4256 39.3066 36.1718 39.0419 36.0389L36.7773 34.8944C37.1559 33.9608 37.4243 32.9413 37.564 32.035L41.9317 34.1834L49.836 73.3004L33.873 83.5348ZM51.3808 74.6403C51.7264 74.4215 51.8992 73.9918 51.8146 73.5739L51.344 71.2458H54.5425L55.5498 78.8083H44.8844L51.3808 74.6403ZM91.8805 78.8083H84.7739L85.7776 71.2458H93.4871L91.8805 78.8083ZM96.2996 58.0383H87.5349L88.5864 50.1203H97.9835L96.2996 58.0383ZM101.811 48.1203H46.6709L45.8548 44.0891H101.811L101.811 48.1203Z" fill="#4CA30D"/>
<path d="M43 94.9062C41.3452 94.9062 40 96.4756 40 98.4062C40 100.337 41.3452 101.906 43 101.906C44.6548 101.906 46 100.337 46 98.4062C46 96.4756 44.6548 94.9062 43 94.9062ZM43 99.8512C42.3188 99.8512 41.7615 99.201 41.7615 98.4063C41.7615 97.6116 42.3188 96.9614 43 96.9614C43.6812 96.9614 44.2385 97.6116 44.2385 98.4063C44.2385 99.205 43.6812 99.8512 43 99.8512Z" fill="#4BA30D"/>
<path d="M90 94.9062C88.3452 94.9062 87 96.4756 87 98.4062C87 100.337 88.3452 101.906 90 101.906C91.6548 101.906 93 100.337 93 98.4062C93 96.4756 91.6548 94.9062 90 94.9062ZM90 99.8512C89.3188 99.8512 88.7615 99.201 88.7615 98.4063C88.7615 97.6116 89.3188 96.9614 90 96.9614C90.6812 96.9614 91.2385 97.6116 91.2385 98.4063C91.2385 99.205 90.6846 99.8512 90 99.8512Z" fill="#4BA30D"/>
</svg>
