<svg width="19" height="19" viewBox="0 0 19 19" fill="none" xmlns="http://www.w3.org/2000/svg">
<path d="M0.833008 9.16659H17.4997M0.833008 9.16659C0.833008 13.769 4.56397 17.4999 9.16634 17.4999M0.833008 9.16659C0.833008 4.56421 4.56397 0.833252 9.16634 0.833252M17.4997 9.16659C17.4997 13.769 13.7687 17.4999 9.16634 17.4999M17.4997 9.16659C17.4997 4.56421 13.7687 0.833252 9.16634 0.833252M9.16634 0.833252C11.2507 3.11521 12.4353 6.07661 12.4997 9.16659C12.4353 12.2566 11.2507 15.218 9.16634 17.4999M9.16634 0.833252C7.08194 3.11521 5.89738 6.07661 5.83301 9.16659C5.89738 12.2566 7.08194 15.218 9.16634 17.4999" stroke="#667085" stroke-width="1.66667" stroke-linecap="round" stroke-linejoin="round"/>
</svg>
