<svg width="21" height="20" viewBox="0 0 21 20" fill="none" xmlns="http://www.w3.org/2000/svg">
<path d="M3.83368 18.1812C4.33583 18.3333 5.01407 18.3333 6.16699 18.3333H14.8337C15.9866 18.3333 16.6648 18.3333 17.167 18.1812M3.83368 18.1812C3.72601 18.1485 3.62644 18.1089 3.53202 18.0608C3.06161 17.8211 2.67916 17.4387 2.43948 16.9683C2.16699 16.4335 2.16699 15.7334 2.16699 14.3333V5.66663C2.16699 4.26649 2.16699 3.56643 2.43948 3.03165C2.67916 2.56124 3.06161 2.17879 3.53202 1.93911C4.0668 1.66663 4.76686 1.66663 6.16699 1.66663H14.8337C16.2338 1.66663 16.9339 1.66663 17.4686 1.93911C17.939 2.17879 18.3215 2.56124 18.5612 3.03165C18.8337 3.56643 18.8337 4.26649 18.8337 5.66663V14.3333C18.8337 15.7334 18.8337 16.4335 18.5612 16.9683C18.3215 17.4387 17.939 17.8211 17.4686 18.0608C17.3742 18.1089 17.2746 18.1485 17.167 18.1812M3.83368 18.1812C3.83395 17.5067 3.838 17.1498 3.89771 16.8497C4.16073 15.5274 5.19439 14.4937 6.51669 14.2307C6.83869 14.1666 7.2259 14.1666 8.00033 14.1666H13.0003C13.7748 14.1666 14.162 14.1666 14.484 14.2307C15.8063 14.4937 16.8399 15.5274 17.1029 16.8497C17.1627 17.1498 17.1667 17.5067 17.167 18.1812M13.8337 7.91663C13.8337 9.75758 12.3413 11.25 10.5003 11.25C8.65938 11.25 7.16699 9.75758 7.16699 7.91663C7.16699 6.07568 8.65938 4.58329 10.5003 4.58329C12.3413 4.58329 13.8337 6.07568 13.8337 7.91663Z" stroke="#4CA30D" stroke-width="1.66667" stroke-linecap="round" stroke-linejoin="round"/>
</svg>
