<svg width="40" height="39" viewBox="0 0 40 39" fill="none" xmlns="http://www.w3.org/2000/svg">
<path d="M6.66699 11.6666V9.99996C6.66699 9.1159 7.01818 8.26806 7.6433 7.64294C8.26842 7.01782 9.11627 6.66663 10.0003 6.66663H13.3337M6.66699 28.3333V30C6.66699 30.884 7.01818 31.7319 7.6433 32.357C8.26842 32.9821 9.11627 33.3333 10.0003 33.3333H13.3337M26.667 6.66663H30.0003C30.8844 6.66663 31.7322 7.01782 32.3573 7.64294C32.9825 8.26806 33.3337 9.1159 33.3337 9.99996V11.6666M26.667 33.3333H30.0003C30.8844 33.3333 31.7322 32.9821 32.3573 32.357C32.9825 31.7319 33.3337 30.884 33.3337 30V28.3333M8.33366 20H31.667" stroke="#FAFEF5" stroke-width="4" stroke-linecap="round" stroke-linejoin="round"/>
</svg>
