<svg width="181" height="20" viewBox="0 0 181 20" fill="none" xmlns="http://www.w3.org/2000/svg">
<g clip-path="url(#clip0_63004_34625)">
<path d="M18.9683 10.4426C18.6664 10.4365 18.4128 10.2161 18.3615 9.91723C17.7274 5.60594 14.82 1.24937 9.77813 1.24937C5.05323 1.25843 1.22198 5.08968 1.21293 9.81458C1.24312 10.1497 0.99555 10.4426 0.66043 10.4727C0.325309 10.5029 0.0324554 10.2554 0.00226433 9.92025C-0.000754777 9.88402 -0.000754777 9.85081 0.00226433 9.81458C-0.00679299 4.41038 4.36789 0.0236163 9.77209 0.0175781H9.77813C14.7597 0.0175781 18.7056 3.92732 19.5812 9.7542C19.6234 10.0833 19.4 10.3882 19.0709 10.4456C19.0377 10.4607 19.0015 10.4607 18.9683 10.4456V10.4426Z" fill="#75BF45"/>
<path d="M28.1405 19.6169C25.6044 19.635 23.1771 18.5784 21.4592 16.7125C19.7383 14.8196 18.6575 12.4375 18.3616 9.8954C18.3224 9.55726 18.5639 9.25535 18.902 9.21611C19.2402 9.17686 19.5421 9.41839 19.5813 9.75653C20.1459 14.0678 23.0231 18.4002 28.1646 18.4002C32.9016 18.4002 36.7419 14.5539 36.7389 9.81691C36.7087 9.48179 36.9563 9.18893 37.2914 9.15874C37.6265 9.12855 37.9194 9.37612 37.9496 9.71124C37.9496 9.74747 37.9496 9.78068 37.9496 9.81691C37.9435 15.2302 33.5537 19.6169 28.1405 19.6169Z" fill="#75BF45"/>
<path d="M35.8099 5.40329C35.6197 5.38517 35.4476 5.28252 35.3449 5.11949C32.7726 1.16144 27.4771 0.0413529 23.5221 2.61363C22.5228 3.26576 21.6684 4.11715 21.0162 5.11949C20.814 5.39423 20.4275 5.45159 20.1528 5.24931C19.9022 5.06515 19.8297 4.72399 19.9807 4.45227C22.9002 -0.0643157 28.9293 -1.35951 33.4459 1.56298C34.6022 2.31172 35.5895 3.29595 36.3352 4.45227C36.5163 4.73606 36.4378 5.11647 36.154 5.30064C36.0635 5.38517 35.9336 5.42442 35.8099 5.40329Z" fill="#42554A"/>
<path d="M37.3343 10.4423H28.8295C28.4944 10.4423 28.2227 10.1706 28.2227 9.83546C28.2227 9.50034 28.4944 9.22862 28.8295 9.22862H37.3343C37.6634 9.22258 37.9321 9.48524 37.9381 9.81131V9.83546C37.9351 10.1706 37.6664 10.4423 37.3343 10.4423Z" fill="#75BF45"/>
<path d="M9.79433 19.6172C6.27405 19.6172 3.0255 17.7212 1.29555 14.6568C1.23517 14.5541 1.17478 14.4334 1.1144 14.3307C0.398873 12.9419 0.0245035 11.3992 0.0214844 9.83829C0.0214844 9.50316 0.293204 9.23145 0.628325 9.23145C0.963445 9.23145 1.23517 9.50316 1.23517 9.83829C1.22611 11.209 1.54311 12.5645 2.16203 13.7903C2.21034 13.8869 2.26468 13.9835 2.32506 14.0741C4.64072 18.2012 9.86377 19.6715 13.9909 17.3589C14.8815 16.8607 15.6755 16.2056 16.3337 15.4297C16.6839 15.013 16.9919 14.5662 17.2606 14.0952C17.4296 13.8054 17.801 13.7088 18.0908 13.8718C18.3807 14.0318 18.4833 14.3971 18.3233 14.684C18.3233 14.69 18.3173 14.696 18.3142 14.699C18.0003 15.2485 17.638 15.7678 17.2304 16.2539C15.3465 18.3854 12.6413 19.6111 9.79433 19.6172Z" fill="#42554A"/>
<path d="M9.58838 19.617C4.1872 19.4993 -0.093889 15.028 0.0238561 9.62677C0.138582 4.39164 4.35325 0.176968 9.58838 0.0622417C9.91747 0.0531843 10.1892 0.312828 10.1952 0.64191V0.669082C10.2043 0.998165 9.94464 1.26988 9.61556 1.27592H9.58838C4.86046 1.38461 1.11375 5.30945 1.22546 10.0374C1.33113 14.6113 5.01444 18.2946 9.58838 18.4003C9.91747 18.3912 10.1892 18.6509 10.1982 18.98V19.0313C10.1831 19.3574 9.91445 19.617 9.58838 19.617Z" fill="url(#paint0_linear_63004_34625)"/>
<path d="M58.6808 9.49189V16.5991C58.0712 16.9184 57.2753 17.1773 56.2932 17.3732C55.3134 17.5692 54.3192 17.6684 53.3177 17.6684C51.7913 17.6684 50.4753 17.3563 49.3722 16.7298C48.2667 16.1056 47.4224 15.2033 46.8322 14.0277C46.2443 12.8496 45.9492 11.4417 45.9492 9.79911C45.9492 8.15656 46.2395 6.76801 46.8201 5.59234C47.4007 4.41425 48.2377 3.51436 49.3262 2.89024C50.4148 2.26612 51.7018 1.94922 53.1847 1.94922C54.2611 1.94922 55.2481 2.11372 56.1504 2.44029C57.0503 2.76687 57.822 3.25068 58.4607 3.88932L57.7857 5.26335C57.0455 4.62471 56.3149 4.16509 55.5941 3.88932C54.8756 3.61354 54.0725 3.47565 53.1847 3.47565C51.455 3.47565 50.1245 4.01995 49.1956 5.11095C48.2667 6.20195 47.7998 7.76225 47.7998 9.79669C47.7998 11.8311 48.2715 13.4543 49.2174 14.5381C50.1608 15.6218 51.5421 16.1613 53.3588 16.1613C54.6821 16.1613 55.9085 15.9653 57.0431 15.5734V10.8877H53.2282V9.49189H58.6808Z" fill="#42554A"/>
<path d="M62.3008 17.4939V2.12549H64.0885V17.4939H62.3008Z" fill="#42554A"/>
<path d="M78.518 2.12354H80.1968V17.4919H78.8228L69.5577 5.13286V17.4919H67.8789V2.12354H69.2529L78.518 14.4826V2.12354Z" fill="#42554A"/>
<path d="M83.9902 17.4939V2.12549H93.7125V3.60838H85.7562V8.94969H93.2771V10.4326H85.7562V16.0134H93.7125V17.4963H83.9902V17.4939Z" fill="#42554A"/>
<path d="M95.5859 15.7283L96.2826 14.3542C97.0374 14.9929 97.8115 15.4525 98.6049 15.7283C99.396 16.004 100.315 16.1419 101.363 16.1419C102.599 16.1419 103.55 15.9024 104.217 15.4235C104.885 14.9445 105.221 14.2671 105.221 13.3963C105.221 12.8883 105.061 12.4722 104.742 12.1529C104.423 11.8336 104.002 11.5795 103.477 11.3909C102.954 11.2022 102.248 11.0062 101.363 10.803C100.17 10.5273 99.1928 10.237 98.4308 9.93216C97.6688 9.62736 97.0495 9.19192 96.5778 8.62344C96.106 8.05738 95.869 7.31472 95.869 6.40031C95.869 5.4859 96.0988 4.75534 96.556 4.078C97.0132 3.40308 97.6688 2.87814 98.5179 2.50802C99.3669 2.13791 100.352 1.94922 101.472 1.94922C102.531 1.94922 103.523 2.11613 104.447 2.44997C105.369 2.7838 106.15 3.26278 106.791 3.88932L106.116 5.26335C105.39 4.63923 104.653 4.18444 103.903 3.90141C103.153 3.61838 102.345 3.47565 101.472 3.47565C100.279 3.47565 99.3452 3.72724 98.6703 4.22799C97.9953 4.72873 97.6567 5.43026 97.6567 6.33258C97.6567 7.10426 97.9542 7.68484 98.5493 8.07673C99.1444 8.46862 100.047 8.80245 101.251 9.08065C102.575 9.39996 103.612 9.69509 104.37 9.96361C105.124 10.2321 105.753 10.6361 106.256 11.1731C106.757 11.7102 107.009 12.4311 107.009 13.331C107.009 14.2309 106.779 14.9663 106.322 15.6194C105.865 16.2725 105.207 16.7781 104.348 17.1337C103.489 17.4893 102.488 17.6684 101.338 17.6684C98.9436 17.6684 97.0253 17.0176 95.5859 15.7258V15.7283Z" fill="#42554A"/>
<path d="M121.133 2.12354L115.095 10.2323V17.4919H113.308V10.2105L107.27 2.12354H109.34L114.222 8.7518L119.104 2.12354H121.133Z" fill="#42554A"/>
<path d="M121.264 15.7283L121.96 14.3542C122.715 14.9929 123.489 15.4525 124.283 15.7283C125.074 16.004 125.993 16.1419 127.04 16.1419C128.277 16.1419 129.227 15.9024 129.897 15.4235C130.565 14.9445 130.901 14.2671 130.901 13.3963C130.901 12.8883 130.742 12.4722 130.422 12.1529C130.103 11.8336 129.682 11.5795 129.157 11.3909C128.635 11.2022 127.928 11.0062 127.043 10.803C125.85 10.5273 124.873 10.237 124.111 9.93216C123.349 9.62736 122.73 9.19192 122.258 8.62344C121.786 8.05738 121.549 7.31472 121.549 6.40031C121.549 5.4859 121.779 4.75534 122.236 4.078C122.693 3.40308 123.349 2.87814 124.198 2.50802C125.047 2.13791 126.032 1.94922 127.152 1.94922C128.214 1.94922 129.205 2.11613 130.127 2.44997C131.049 2.7838 131.83 3.26278 132.471 3.88932L131.796 5.26335C131.068 4.63923 130.333 4.18444 129.583 3.90141C128.833 3.61838 128.023 3.47565 127.152 3.47565C125.959 3.47565 125.025 3.72724 124.35 4.22799C123.675 4.72873 123.337 5.43026 123.337 6.33258C123.337 7.10426 123.634 7.68484 124.229 8.07673C124.825 8.46862 125.727 8.80245 126.932 9.08065C128.255 9.39996 129.295 9.69509 130.05 9.96361C130.804 10.2321 131.433 10.6361 131.934 11.1731C132.435 11.7102 132.687 12.4311 132.687 13.331C132.687 14.2309 132.457 14.9663 132 15.6194C131.542 16.2725 130.884 16.7781 130.028 17.1337C129.169 17.4893 128.168 17.6684 127.019 17.6684C124.621 17.6684 122.703 17.0176 121.264 15.7258V15.7283Z" fill="#42554A"/>
<path d="M138.95 17.8086V2.0931H144.26C145.493 2.0931 146.501 2.31564 147.284 2.7607C148.071 3.20066 148.655 3.79664 149.033 4.54865C149.412 5.30066 149.601 6.13964 149.601 7.06558C149.601 7.99153 149.412 8.83306 149.033 9.59019C148.66 10.3473 148.082 10.951 147.299 11.4012C146.516 11.8462 145.513 12.0688 144.291 12.0688H140.485V10.3806H144.229C145.074 10.3806 145.751 10.2348 146.263 9.94317C146.774 9.65158 147.145 9.25767 147.376 8.76144C147.611 8.2601 147.729 7.69482 147.729 7.06558C147.729 6.43635 147.611 5.87362 147.376 5.37739C147.145 4.88117 146.772 4.49238 146.255 4.21101C145.739 3.92453 145.053 3.78129 144.199 3.78129H140.853V17.8086H138.95ZM165.589 9.95085C165.589 11.6083 165.29 13.0407 164.691 14.2481C164.093 15.4554 163.272 16.3864 162.228 17.0412C161.184 17.696 159.992 18.0235 158.652 18.0235C157.312 18.0235 156.12 17.696 155.076 17.0412C154.033 16.3864 153.211 15.4554 152.613 14.2481C152.014 13.0407 151.715 11.6083 151.715 9.95085C151.715 8.29336 152.014 6.86095 152.613 5.65364C153.211 4.44633 154.033 3.51527 155.076 2.86046C156.12 2.20565 157.312 1.87824 158.652 1.87824C159.992 1.87824 161.184 2.20565 162.228 2.86046C163.272 3.51527 164.093 4.44633 164.691 5.65364C165.29 6.86095 165.589 8.29336 165.589 9.95085ZM163.747 9.95085C163.747 8.59007 163.52 7.44159 163.064 6.50541C162.614 5.56923 162.003 4.86071 161.23 4.37983C160.463 3.89895 159.604 3.65851 158.652 3.65851C157.7 3.65851 156.838 3.89895 156.066 4.37983C155.299 4.86071 154.687 5.56923 154.232 6.50541C153.782 7.44159 153.557 8.59007 153.557 9.95085C153.557 11.3116 153.782 12.4601 154.232 13.3963C154.687 14.3325 155.299 15.041 156.066 15.5219C156.838 16.0027 157.7 16.2432 158.652 16.2432C159.604 16.2432 160.463 16.0027 161.23 15.5219C162.003 15.041 162.614 14.3325 163.064 13.3963C163.52 12.4601 163.747 11.3116 163.747 9.95085ZM177.046 6.02198C176.954 5.24439 176.58 4.64073 175.925 4.21101C175.271 3.78129 174.467 3.56643 173.516 3.56643C172.82 3.56643 172.211 3.67898 171.69 3.90407C171.173 4.12916 170.769 4.43866 170.477 4.83257C170.191 5.22648 170.047 5.67411 170.047 6.17545C170.047 6.59494 170.147 6.95559 170.347 7.25742C170.551 7.55413 170.812 7.80225 171.129 8.00176C171.447 8.19616 171.779 8.3573 172.127 8.48519C172.475 8.60797 172.795 8.70773 173.086 8.78446L174.682 9.21418C175.091 9.32161 175.547 9.46997 176.048 9.65925C176.555 9.84853 177.038 10.1069 177.498 10.4343C177.964 10.7566 178.348 11.1709 178.649 11.6774C178.951 12.1839 179.102 12.8054 179.102 13.5421C179.102 14.3913 178.88 15.1587 178.435 15.8442C177.995 16.5297 177.35 17.0745 176.501 17.4786C175.657 17.8828 174.631 18.0848 173.424 18.0848C172.298 18.0848 171.324 17.9032 170.5 17.54C169.682 17.1768 169.037 16.6703 168.566 16.0206C168.101 15.371 167.837 14.6164 167.776 13.7569H169.74C169.792 14.3504 169.991 14.8415 170.339 15.2303C170.692 15.6139 171.137 15.9004 171.674 16.0897C172.216 16.2739 172.8 16.366 173.424 16.366C174.15 16.366 174.802 16.2483 175.381 16.013C175.959 15.7725 176.416 15.44 176.754 15.0154C177.092 14.5857 177.261 14.0843 177.261 13.5114C177.261 12.9896 177.115 12.565 176.823 12.2376C176.532 11.9102 176.148 11.6442 175.672 11.4395C175.196 11.2349 174.682 11.0558 174.13 10.9024L172.196 10.3499C170.968 9.99689 169.996 9.49299 169.28 8.83818C168.564 8.18337 168.206 7.32648 168.206 6.26753C168.206 5.38763 168.444 4.62027 168.919 3.96546C169.4 3.30553 170.045 2.79396 170.853 2.43074C171.667 2.06241 172.575 1.87824 173.577 1.87824C174.59 1.87824 175.491 2.05985 176.278 2.42307C177.066 2.78117 177.69 3.27228 178.151 3.89639C178.616 4.52051 178.862 5.22904 178.887 6.02198H177.046Z" fill="#42554A" fill-opacity="0.5"/>
</g>
<defs>
<linearGradient id="paint0_linear_63004_34625" x1="5.10803" y1="0.0592226" x2="5.10803" y2="19.614" gradientUnits="userSpaceOnUse">
<stop stop-color="#75BF45"/>
<stop offset="0.21" stop-color="#74BC45"/>
<stop offset="0.4" stop-color="#6AB045"/>
<stop offset="0.58" stop-color="#639E44"/>
<stop offset="0.76" stop-color="#598446"/>
<stop offset="0.93" stop-color="#486449"/>
<stop offset="1" stop-color="#42554A"/>
</linearGradient>
<clipPath id="clip0_63004_34625">
<rect width="180.687" height="19.6172" fill="white"/>
</clipPath>
</defs>
</svg>
