<svg width="40" height="24" viewBox="0 0 40 24" fill="none" xmlns="http://www.w3.org/2000/svg">
<g clip-path="url(#clip0_58962_19596)">
<rect width="40" height="24" fill="white"/>
<path fill-rule="evenodd" clip-rule="evenodd" d="M28.0766 15.5424H26.5253L28.6809 7.71875H30.2321L28.0766 15.5424ZM15.1857 15.0522C15.1009 15.3612 14.8182 15.5778 14.5002 15.5778H6.50351C6.28439 15.5778 6.12191 15.5032 6.01583 15.3541C5.90987 15.2048 5.88515 15.0202 5.94875 14.8001L7.89935 7.7401H9.4507L7.70855 14.0472H13.9137L15.6558 7.7401H17.2071L15.1859 15.0522H15.1857ZM27.2709 7.96381C27.1649 7.81463 26.9987 7.7401 26.7727 7.7401H18.2494L17.829 9.27423H25.5819L25.1296 10.9115H18.928V10.9079H17.3768L16.0905 15.5779H17.6418L18.504 12.4456H25.4759C25.6951 12.4456 25.9 12.371 26.0908 12.2219C26.2816 12.0727 26.4089 11.8881 26.4689 11.6679L27.3311 8.53569C27.3982 8.30136 27.3771 8.11311 27.271 7.96393L27.2709 7.96381Z" fill="#716D6A"/>
<path fill-rule="evenodd" clip-rule="evenodd" d="M32.9125 7.73438L34.8738 11.655L30.75 15.5757L31.2404 13.7972L33.4957 11.655L32.4228 9.51019L32.9125 7.73438Z" fill="#0E8635"/>
<path fill-rule="evenodd" clip-rule="evenodd" d="M31.5256 7.73438L33.4868 11.655L29.3594 15.5757L31.5256 7.73438Z" fill="#E97208"/>
<path d="M3.76379 0H36.2359C37.2716 0 38.2127 0.425472 38.8946 1.11071C39.5765 1.79608 39.9999 2.74193 39.9999 3.7827V20.2173C39.9999 21.2579 39.5764 22.2038 38.8946 22.8892C38.2126 23.5744 37.2715 24 36.236 24H3.76391C2.72844 24 1.78716 23.5745 1.1052 22.8892C0.423359 22.2039 0 21.2582 0 20.2173V3.7827C0 2.74181 0.423359 1.79596 1.1052 1.11071C1.78704 0.425472 2.72831 0 3.76403 0H3.76379ZM36.2359 1.30379H3.76379C3.08615 1.30379 2.4696 1.58298 2.02224 2.03257C1.57488 2.48216 1.29708 3.1018 1.29708 3.78282V20.2174C1.29708 20.8983 1.57488 21.518 2.02224 21.9675C2.46972 22.4173 3.08627 22.6964 3.76379 22.6964H36.2359C36.9133 22.6964 37.5298 22.4173 37.9773 21.9675C38.4246 21.5178 38.7026 20.8982 38.7026 20.2175V3.78294C38.7026 3.10216 38.4248 2.48241 37.9774 2.03269C37.5301 1.5831 36.9134 1.30391 36.2359 1.30391V1.30379Z" fill="#808080"/>
<g clip-path="url(#clip1_58962_19596)">
<path d="M3.81067 0.0351562H36.2827C37.3184 0.0351562 38.2596 0.460629 38.9414 1.14587C39.6234 1.83123 40.0468 2.77709 40.0468 3.81786V20.2525C40.0468 21.2931 39.6233 22.239 38.9414 22.9243C38.2595 23.6096 37.3183 24.0352 36.2828 24.0352H3.81079C2.77531 24.0352 1.83403 23.6097 1.15207 22.9243C0.470234 22.2391 0.046875 21.2933 0.046875 20.2525V3.81786C0.046875 2.77697 0.470234 1.83111 1.15207 1.14587C1.83391 0.460629 2.77519 0.0351562 3.81091 0.0351562H3.81067ZM36.2827 1.33895H3.81067C3.13303 1.33895 2.51647 1.61814 2.06911 2.06773C1.62175 2.51732 1.34395 3.13696 1.34395 3.81798V20.2526C1.34395 20.9335 1.62175 21.5531 2.06911 22.0027C2.51659 22.4524 3.13315 22.7316 3.81067 22.7316H36.2827C36.9601 22.7316 37.5767 22.4524 38.0242 22.0027C38.4715 21.553 38.7494 20.9334 38.7494 20.2527V3.8181C38.7494 3.13732 38.4716 2.51756 38.0243 2.06785C37.5769 1.61826 36.9602 1.33907 36.2827 1.33907V1.33895Z" fill="#D9D9D9"/>
</g>
</g>
<defs>
<clipPath id="clip0_58962_19596">
<rect width="40" height="24" fill="white"/>
</clipPath>
<clipPath id="clip1_58962_19596">
<rect x="0.046875" y="0.0351562" width="40" height="24" rx="2.5" fill="white"/>
</clipPath>
</defs>
</svg>
